<svg width="48" height="48" viewBox="0 0 48 48" fill="none" xmlns="http://www.w3.org/2000/svg">
<path d="M11 34.6875L24 42L32 37.5L37 34.6875M40 30V15L27.5 7.96875L40 30ZM20.5 7.96875L8 15V30L20.5 7.96875Z" stroke="black" stroke-width="4" stroke-linecap="round" stroke-linejoin="round"/>
<path d="M21 18.75L18 20.5V24V27.5L21 29.25L24 31L27 29.25L30 27.5V24V20.5L27 18.75L24 17L21 18.75Z" fill="#2F88FF" stroke="black" stroke-width="4" stroke-linecap="round" stroke-linejoin="round"/>
<path d="M24 17V10" stroke="black" stroke-width="4" stroke-linecap="round" stroke-linejoin="round"/>
<path d="M30 27L37 31" stroke="black" stroke-width="4" stroke-linecap="round" stroke-linejoin="round"/>
<path d="M18 27L11 31" stroke="black" stroke-width="4" stroke-linecap="round" stroke-linejoin="round"/>
<path d="M24 10C25.6569 10 27 8.65685 27 7C27 5.34315 25.6569 4 24 4C22.3431 4 21 5.34315 21 7C21 8.65685 22.3431 10 24 10Z" fill="#2F88FF" stroke="black" stroke-width="4" stroke-linecap="round" stroke-linejoin="round"/>
<path d="M8 36C9.65685 36 11 34.6569 11 33C11 31.3431 9.65685 30 8 30C6.34315 30 5 31.3431 5 33C5 34.6569 6.34315 36 8 36Z" fill="#2F88FF" stroke="black" stroke-width="4" stroke-linecap="round" stroke-linejoin="round"/>
<path d="M40 36C41.6569 36 43 34.6569 43 33C43 31.3431 41.6569 30 40 30C38.3431 30 37 31.3431 37 33C37 34.6569 38.3431 36 40 36Z" fill="#2F88FF" stroke="black" stroke-width="4" stroke-linecap="round" stroke-linejoin="round"/>
</svg>
